<?xml version="1.0"?>

<!DOCTYPE svg PUBLIC '-//W3C//DTD SVG 1.0//EN' 'http://www.w3.org/TR/2001/REC-SVG-20010904/DTD/svg10.dtd'>
<svg fill-opacity="1" xmlns:xlink="http://www.w3.org/1999/xlink" color-rendering="auto" color-interpolation="auto" stroke="black" text-rendering="auto" stroke-linecap="square" width="2352" stroke-miterlimit="10" stroke-opacity="1" shape-rendering="auto" fill="black" stroke-dasharray="none" font-weight="normal" stroke-width="1" height="1916" xmlns="http://www.w3.org/2000/svg" font-family="&apos;Dialog&apos;" font-style="normal" stroke-linejoin="miter" font-size="12" stroke-dashoffset="0" image-rendering="auto">
  <!--Generated by the Batik Graphics2D SVG Generator-->
  <defs id="genericDefs" />
  <g>
    <g fill="white" stroke="white">
      <rect width="2352" x="0" height="1916" y="0" stroke="none" />
    </g>
    <g font-family="&apos;SansSerif&apos;" font-size="11">
      <line y2="477" fill="none" x1="663" x2="1689" y1="958" />
      <text xml:space="preserve" x="1693" y="482" stroke="none">morg_oehleri</text>
      <line y2="964" fill="none" x1="663" x2="675" y1="958" />
      <line y2="488" fill="none" x1="675" x2="1689" y1="964" />
      <text xml:space="preserve" x="1693" y="493" stroke="none">morg_watsoni</text>
      <line y2="969" fill="none" x1="675" x2="687" y1="964" />
      <line y2="500" fill="none" x1="687" x2="1689" y1="969" />
      <text xml:space="preserve" x="1693" y="505" stroke="none">Haldanodon_exspectatus</text>
      <line y2="975" fill="none" x1="687" x2="700" y1="969" />
      <line y2="517" fill="none" x1="700" x2="1677" y1="975" />
      <line y2="511" fill="none" x1="1677" x2="1689" y1="517" />
      <text xml:space="preserve" x="1693" y="516" stroke="none">Ornithorhynchus_anatinus</text>
      <line y2="523" fill="none" x1="1677" x2="1689" y1="517" />
      <text xml:space="preserve" x="1693" y="528" stroke="none">Tachyglossus_aculeatus</text>
      <line y2="987" fill="none" x1="700" x2="724" y1="975" />
      <line y2="540" fill="none" x1="724" x2="1677" y1="987" />
      <line y2="534" fill="none" x1="1677" x2="1689" y1="540" />
      <text xml:space="preserve" x="1693" y="539" stroke="none">Zhangheotherium_quinquecuspidens</text>
      <line y2="546" fill="none" x1="1677" x2="1689" y1="540" />
      <text xml:space="preserve" x="1693" y="551" stroke="none">Henkelotherium_guimarotae</text>
      <line y2="998" fill="none" x1="724" x2="749" y1="987" />
      <line y2="992" fill="none" x1="749" x2="761" y1="998" />
      <line y2="569" fill="none" x1="761" x2="1665" y1="992" />
      <line y2="563" fill="none" x1="1665" x2="1677" y1="569" />
      <line y2="557" fill="none" x1="1677" x2="1689" y1="563" />
      <text xml:space="preserve" x="1693" y="562" stroke="none">Pucadelphys_andinus</text>
      <line y2="569" fill="none" x1="1677" x2="1689" y1="563" />
      <text xml:space="preserve" x="1693" y="574" stroke="none">Didelphis_virginiana</text>
      <line y2="580" fill="none" x1="1665" x2="1689" y1="569" />
      <text xml:space="preserve" x="1693" y="585" stroke="none">Dromiciops_gliroides</text>
      <line y2="1010" fill="none" x1="761" x2="797" y1="992" />
      <line y2="603" fill="none" x1="797" x2="1665" y1="1010" />
      <line y2="592" fill="none" x1="1665" x2="1689" y1="603" />
      <text xml:space="preserve" x="1693" y="597" stroke="none">Maelestes_gobiensis</text>
      <line y2="609" fill="none" x1="1665" x2="1677" y1="603" />
      <line y2="603" fill="none" x1="1677" x2="1689" y1="609" />
      <text xml:space="preserve" x="1693" y="608" stroke="none">Ukhaatherium_nessovi</text>
      <line y2="614" fill="none" x1="1677" x2="1689" y1="609" />
      <text xml:space="preserve" x="1693" y="619" stroke="none">Zalambdalestes_lechei</text>
      <line y2="1027" fill="none" x1="797" x2="834" y1="1010" />
      <line y2="981" fill="none" x1="834" x2="932" y1="1027" />
      <line y2="752" fill="none" x1="932" x2="1420" y1="981" />
      <line y2="655" fill="none" x1="1420" x2="1628" y1="752" />
      <line y2="649" fill="none" x1="1628" x2="1640" y1="655" />
      <line y2="637" fill="none" x1="1640" x2="1665" y1="649" />
      <line y2="626" fill="none" x1="1665" x2="1689" y1="637" />
      <text xml:space="preserve" x="1693" y="631" stroke="none">Dasypus_novemcinctus</text>
      <line y2="643" fill="none" x1="1665" x2="1677" y1="637" />
      <line y2="637" fill="none" x1="1677" x2="1689" y1="643" />
      <text xml:space="preserve" x="1693" y="642" stroke="none">Hapalops_elongatus</text>
      <line y2="649" fill="none" x1="1677" x2="1689" y1="643" />
      <text xml:space="preserve" x="1693" y="654" stroke="none">Tamandua_tetradactyla</text>
      <line y2="666" fill="none" x1="1640" x2="1677" y1="649" />
      <line y2="660" fill="none" x1="1677" x2="1689" y1="666" />
      <text xml:space="preserve" x="1693" y="665" stroke="none">Manis_pentadactyla</text>
      <line y2="672" fill="none" x1="1677" x2="1689" y1="666" />
      <text xml:space="preserve" x="1693" y="677" stroke="none">Metacheiromys_marshi</text>
      <line y2="683" fill="none" x1="1628" x2="1689" y1="655" />
      <text xml:space="preserve" x="1693" y="688" stroke="none">Orycteropus_afer</text>
      <line y2="786" fill="none" x1="1420" x2="1494" y1="752" />
      <line y2="740" fill="none" x1="1494" x2="1591" y1="786" />
      <line y2="712" fill="none" x1="1591" x2="1652" y1="740" />
      <line y2="700" fill="none" x1="1652" x2="1677" y1="712" />
      <line y2="695" fill="none" x1="1677" x2="1689" y1="700" />
      <text xml:space="preserve" x="1693" y="700" stroke="none">Galeopterus_variegatus</text>
      <line y2="706" fill="none" x1="1677" x2="1689" y1="700" />
      <text xml:space="preserve" x="1693" y="711" stroke="none">Cynocephalus_volans</text>
      <line y2="723" fill="none" x1="1652" x2="1677" y1="712" />
      <line y2="718" fill="none" x1="1677" x2="1689" y1="723" />
      <text xml:space="preserve" x="1693" y="723" stroke="none">Ptilocercus_lowii</text>
      <line y2="729" fill="none" x1="1677" x2="1689" y1="723" />
      <text xml:space="preserve" x="1693" y="734" stroke="none">Tupaia_glis</text>
      <line y2="763" fill="none" x1="1591" x2="1640" y1="740" />
      <line y2="758" fill="none" x1="1640" x2="1652" y1="763" />
      <line y2="752" fill="none" x1="1652" x2="1665" y1="758" />
      <line y2="746" fill="none" x1="1665" x2="1677" y1="752" />
      <line y2="740" fill="none" x1="1677" x2="1689" y1="746" />
      <text xml:space="preserve" x="1693" y="745" stroke="none">Homo_sapiens</text>
      <line y2="752" fill="none" x1="1677" x2="1689" y1="746" />
      <text xml:space="preserve" x="1693" y="757" stroke="none">Saimiri_sciureus</text>
      <line y2="763" fill="none" x1="1665" x2="1689" y1="752" />
      <text xml:space="preserve" x="1693" y="768" stroke="none">Tarsius_syrichta</text>
      <line y2="775" fill="none" x1="1652" x2="1689" y1="758" />
      <text xml:space="preserve" x="1693" y="780" stroke="none">Lemur_catta_catta</text>
      <line y2="786" fill="none" x1="1640" x2="1689" y1="763" />
      <text xml:space="preserve" x="1693" y="791" stroke="none">Notharctus_tenebrosus</text>
      <line y2="838" fill="none" x1="1494" x2="1604" y1="786" />
      <line y2="798" fill="none" x1="1604" x2="1689" y1="838" />
      <text xml:space="preserve" x="1693" y="803" stroke="none">Pteropus_giganteus</text>
      <line y2="843" fill="none" x1="1604" x2="1616" y1="838" />
      <line y2="832" fill="none" x1="1616" x2="1640" y1="843" />
      <line y2="821" fill="none" x1="1640" x2="1665" y1="832" />
      <line y2="815" fill="none" x1="1665" x2="1677" y1="821" />
      <line y2="809" fill="none" x1="1677" x2="1689" y1="815" />
      <text xml:space="preserve" x="1693" y="814" stroke="none">Rhinopoma_hardwickii</text>
      <line y2="821" fill="none" x1="1677" x2="1689" y1="815" />
      <text xml:space="preserve" x="1693" y="826" stroke="none">Saccopteryx_bilineata</text>
      <line y2="832" fill="none" x1="1665" x2="1689" y1="821" />
      <text xml:space="preserve" x="1693" y="837" stroke="none">Nycteris_thebaica</text>
      <line y2="849" fill="none" x1="1640" x2="1677" y1="832" />
      <line y2="843" fill="none" x1="1677" x2="1689" y1="849" />
      <text xml:space="preserve" x="1693" y="848" stroke="none">Myotis_lucifugus</text>
      <line y2="855" fill="none" x1="1677" x2="1689" y1="849" />
      <text xml:space="preserve" x="1693" y="860" stroke="none">Pteronotus_parnellii</text>
      <line y2="872" fill="none" x1="1616" x2="1677" y1="843" />
      <line y2="866" fill="none" x1="1677" x2="1689" y1="872" />
      <text xml:space="preserve" x="1693" y="871" stroke="none">Icaronycteris_index</text>
      <line y2="878" fill="none" x1="1677" x2="1689" y1="872" />
      <text xml:space="preserve" x="1693" y="883" stroke="none">Onychonycteris_finneyi</text>
      <line y2="1113" fill="none" x1="932" x2="1213" y1="981" />
      <line y2="1084" fill="none" x1="1213" x2="1274" y1="1113" />
      <line y2="1078" fill="none" x1="1274" x2="1286" y1="1084" />
      <line y2="1050" fill="none" x1="1286" x2="1347" y1="1078" />
      <line y2="987" fill="none" x1="1347" x2="1481" y1="1050" />
      <line y2="912" fill="none" x1="1481" x2="1640" y1="987" />
      <line y2="901" fill="none" x1="1640" x2="1665" y1="912" />
      <line y2="895" fill="none" x1="1665" x2="1677" y1="901" />
      <line y2="889" fill="none" x1="1677" x2="1689" y1="895" />
      <text xml:space="preserve" x="1693" y="894" stroke="none">Loxodonta_africana</text>
      <line y2="901" fill="none" x1="1677" x2="1689" y1="895" />
      <text xml:space="preserve" x="1693" y="906" stroke="none">Trichechus_manatus</text>
      <line y2="912" fill="none" x1="1665" x2="1689" y1="901" />
      <text xml:space="preserve" x="1693" y="917" stroke="none">Moeritherium_lyonsi</text>
      <line y2="929" fill="none" x1="1640" x2="1677" y1="912" />
      <line y2="924" fill="none" x1="1677" x2="1689" y1="929" />
      <text xml:space="preserve" x="1693" y="929" stroke="none">Carodnia_vieirai</text>
      <line y2="935" fill="none" x1="1677" x2="1689" y1="929" />
      <text xml:space="preserve" x="1693" y="940" stroke="none">Thomashuxleya_externa</text>
      <line y2="1015" fill="none" x1="1481" x2="1542" y1="987" />
      <line y2="952" fill="none" x1="1542" x2="1677" y1="1015" />
      <line y2="947" fill="none" x1="1677" x2="1689" y1="952" />
      <text xml:space="preserve" x="1693" y="952" stroke="none">Equus_caballus</text>
      <line y2="958" fill="none" x1="1677" x2="1689" y1="952" />
      <text xml:space="preserve" x="1693" y="963" stroke="none">Mesohippus_bairdi</text>
      <line y2="1027" fill="none" x1="1542" x2="1567" y1="1015" />
      <line y2="1015" fill="none" x1="1567" x2="1591" y1="1027" />
      <line y2="969" fill="none" x1="1591" x2="1689" y1="1015" />
      <text xml:space="preserve" x="1693" y="974" stroke="none">Sus_scrofa</text>
      <line y2="1021" fill="none" x1="1591" x2="1604" y1="1015" />
      <line y2="1015" fill="none" x1="1604" x2="1616" y1="1021" />
      <line y2="1010" fill="none" x1="1616" x2="1628" y1="1015" />
      <line y2="1004" fill="none" x1="1628" x2="1640" y1="1010" />
      <line y2="998" fill="none" x1="1640" x2="1652" y1="1004" />
      <line y2="992" fill="none" x1="1652" x2="1665" y1="998" />
      <line y2="987" fill="none" x1="1665" x2="1677" y1="992" />
      <line y2="981" fill="none" x1="1677" x2="1689" y1="987" />
      <text xml:space="preserve" x="1693" y="986" stroke="none">Tursiops_truncatus</text>
      <line y2="992" fill="none" x1="1677" x2="1689" y1="987" />
      <text xml:space="preserve" x="1693" y="997" stroke="none">Caperea_marginata</text>
      <line y2="1004" fill="none" x1="1665" x2="1689" y1="992" />
      <text xml:space="preserve" x="1693" y="1009" stroke="none">Artiocetus_clavis</text>
      <line y2="1015" fill="none" x1="1652" x2="1689" y1="998" />
      <text xml:space="preserve" x="1693" y="1020" stroke="none">Basilosaurus_cetoides</text>
      <line y2="1027" fill="none" x1="1640" x2="1689" y1="1004" />
      <text xml:space="preserve" x="1693" y="1032" stroke="none">Rodhocetus_balochistanensis</text>
      <line y2="1038" fill="none" x1="1628" x2="1689" y1="1010" />
      <text xml:space="preserve" x="1693" y="1043" stroke="none">Mesonyx_obtusidens</text>
      <line y2="1050" fill="none" x1="1616" x2="1689" y1="1015" />
      <text xml:space="preserve" x="1693" y="1055" stroke="none">Archaeotherium_mortoni</text>
      <line y2="1061" fill="none" x1="1604" x2="1689" y1="1021" />
      <text xml:space="preserve" x="1693" y="1066" stroke="none">Hippopotamus_amphibius</text>
      <line y2="1078" fill="none" x1="1567" x2="1677" y1="1027" />
      <line y2="1073" fill="none" x1="1677" x2="1689" y1="1078" />
      <text xml:space="preserve" x="1693" y="1078" stroke="none">Lama_glama</text>
      <line y2="1084" fill="none" x1="1677" x2="1689" y1="1078" />
      <text xml:space="preserve" x="1693" y="1089" stroke="none">Bos_taurus</text>
      <line y2="1153" fill="none" x1="1347" x2="1567" y1="1050" />
      <line y2="1118" fill="none" x1="1567" x2="1640" y1="1153" />
      <line y2="1113" fill="none" x1="1640" x2="1652" y1="1118" />
      <line y2="1107" fill="none" x1="1652" x2="1665" y1="1113" />
      <line y2="1101" fill="none" x1="1665" x2="1677" y1="1107" />
      <line y2="1095" fill="none" x1="1677" x2="1689" y1="1101" />
      <text xml:space="preserve" x="1693" y="1100" stroke="none">Oryctolagus_cuniculus</text>
      <line y2="1107" fill="none" x1="1677" x2="1689" y1="1101" />
      <text xml:space="preserve" x="1693" y="1112" stroke="none">Dawsonolagus_antiquus</text>
      <line y2="1118" fill="none" x1="1665" x2="1689" y1="1107" />
      <text xml:space="preserve" x="1693" y="1123" stroke="none">Gomphos_elkema</text>
      <line y2="1130" fill="none" x1="1652" x2="1689" y1="1113" />
      <text xml:space="preserve" x="1693" y="1135" stroke="none">Tribosphenomys_minutus</text>
      <line y2="1141" fill="none" x1="1640" x2="1689" y1="1118" />
      <text xml:space="preserve" x="1693" y="1146" stroke="none">Rhombomylus_turpanensis</text>
      <line y2="1181" fill="none" x1="1567" x2="1628" y1="1153" />
      <line y2="1158" fill="none" x1="1628" x2="1677" y1="1181" />
      <line y2="1153" fill="none" x1="1677" x2="1689" y1="1158" />
      <text xml:space="preserve" x="1693" y="1158" stroke="none">Paramys_delicatus</text>
      <line y2="1164" fill="none" x1="1677" x2="1689" y1="1158" />
      <text xml:space="preserve" x="1693" y="1169" stroke="none">Cocomys_lingchaensis</text>
      <line y2="1193" fill="none" x1="1628" x2="1652" y1="1181" />
      <line y2="1187" fill="none" x1="1652" x2="1665" y1="1193" />
      <line y2="1176" fill="none" x1="1665" x2="1689" y1="1187" />
      <text xml:space="preserve" x="1693" y="1181" stroke="none">Ictidomys_tridecemlineatus</text>
      <line y2="1193" fill="none" x1="1665" x2="1677" y1="1187" />
      <line y2="1187" fill="none" x1="1677" x2="1689" y1="1193" />
      <text xml:space="preserve" x="1693" y="1192" stroke="none">Castor_canadensis</text>
      <line y2="1199" fill="none" x1="1677" x2="1689" y1="1193" />
      <text xml:space="preserve" x="1693" y="1204" stroke="none">Cavia_porcellus</text>
      <line y2="1210" fill="none" x1="1652" x2="1689" y1="1193" />
      <text xml:space="preserve" x="1693" y="1215" stroke="none">Rattus_norvegicus</text>
      <line y2="1244" fill="none" x1="1286" x2="1640" y1="1078" />
      <line y2="1233" fill="none" x1="1640" x2="1665" y1="1244" />
      <line y2="1227" fill="none" x1="1665" x2="1677" y1="1233" />
      <line y2="1221" fill="none" x1="1677" x2="1689" y1="1227" />
      <text xml:space="preserve" x="1693" y="1226" stroke="none">Apheliscus_insidiosus</text>
      <line y2="1233" fill="none" x1="1677" x2="1689" y1="1227" />
      <text xml:space="preserve" x="1693" y="1238" stroke="none">Protolipterna_ellipsodontoides</text>
      <line y2="1244" fill="none" x1="1665" x2="1689" y1="1233" />
      <text xml:space="preserve" x="1693" y="1249" stroke="none">Didolodus_multicuspis</text>
      <line y2="1262" fill="none" x1="1640" x2="1677" y1="1244" />
      <line y2="1256" fill="none" x1="1677" x2="1689" y1="1262" />
      <text xml:space="preserve" x="1693" y="1261" stroke="none">Phenacodus_intermedius</text>
      <line y2="1267" fill="none" x1="1677" x2="1689" y1="1262" />
      <text xml:space="preserve" x="1693" y="1272" stroke="none">Hyopsodus_paulus</text>
      <line y2="1279" fill="none" x1="1274" x2="1689" y1="1084" />
      <text xml:space="preserve" x="1693" y="1284" stroke="none">Protungulatum_donnae</text>
      <line y2="1313" fill="none" x1="1213" x2="1640" y1="1113" />
      <line y2="1307" fill="none" x1="1640" x2="1652" y1="1313" />
      <line y2="1296" fill="none" x1="1652" x2="1677" y1="1307" />
      <line y2="1290" fill="none" x1="1677" x2="1689" y1="1296" />
      <text xml:space="preserve" x="1693" y="1295" stroke="none">Felis_silvestris</text>
      <line y2="1302" fill="none" x1="1677" x2="1689" y1="1296" />
      <text xml:space="preserve" x="1693" y="1307" stroke="none">Canis_lupus_familiaris</text>
      <line y2="1319" fill="none" x1="1652" x2="1677" y1="1307" />
      <line y2="1313" fill="none" x1="1677" x2="1689" y1="1319" />
      <text xml:space="preserve" x="1693" y="1318" stroke="none">vulv_ovatus</text>
      <line y2="1325" fill="none" x1="1677" x2="1689" y1="1319" />
      <text xml:space="preserve" x="1693" y="1330" stroke="none">vulv_profectus</text>
      <line y2="1336" fill="none" x1="1640" x2="1689" y1="1313" />
      <text xml:space="preserve" x="1693" y="1341" stroke="none">Sinopa_rapax</text>
      <line y2="1388" fill="none" x1="834" x2="1604" y1="1027" />
      <line y2="1353" fill="none" x1="1604" x2="1677" y1="1388" />
      <line y2="1347" fill="none" x1="1677" x2="1689" y1="1353" />
      <text xml:space="preserve" x="1693" y="1352" stroke="none">Leptictis_dakotensis</text>
      <line y2="1359" fill="none" x1="1677" x2="1689" y1="1353" />
      <text xml:space="preserve" x="1693" y="1364" stroke="none">Rhynchocyon_cirnei</text>
      <line y2="1399" fill="none" x1="1604" x2="1628" y1="1388" />
      <line y2="1370" fill="none" x1="1628" x2="1689" y1="1399" />
      <text xml:space="preserve" x="1693" y="1375" stroke="none">Solenodon_paradoxus</text>
      <line y2="1405" fill="none" x1="1628" x2="1640" y1="1399" />
      <line y2="1393" fill="none" x1="1640" x2="1665" y1="1405" />
      <line y2="1388" fill="none" x1="1665" x2="1677" y1="1393" />
      <line y2="1382" fill="none" x1="1677" x2="1689" y1="1388" />
      <text xml:space="preserve" x="1693" y="1387" stroke="none">Talpa_europaea</text>
      <line y2="1393" fill="none" x1="1677" x2="1689" y1="1388" />
      <text xml:space="preserve" x="1693" y="1398" stroke="none">Sorex_araneus</text>
      <line y2="1405" fill="none" x1="1665" x2="1689" y1="1393" />
      <text xml:space="preserve" x="1693" y="1410" stroke="none">Amblysomus_hottentotus</text>
      <line y2="1422" fill="none" x1="1640" x2="1677" y1="1405" />
      <line y2="1416" fill="none" x1="1677" x2="1689" y1="1422" />
      <text xml:space="preserve" x="1693" y="1421" stroke="none">Erinaceus_europaeus</text>
      <line y2="1428" fill="none" x1="1677" x2="1689" y1="1422" />
      <text xml:space="preserve" x="1693" y="1433" stroke="none">Echinops_telfairi</text>
      <line y2="1439" fill="none" x1="749" x2="1689" y1="998" />
      <text xml:space="preserve" x="1693" y="1444" stroke="none">Eomaia_scansoria</text>
    </g>
  </g>
</svg>
